<mxfile host="app.diagrams.net" agent="Mozilla/5.0 (Macintosh; Intel Mac OS X 10_15_7) AppleWebKit/537.36 (KHTML, like Gecko) Chrome/135.0.0.0 Safari/537.36" version="26.1.3">
  <diagram name="Page-1" id="DlUGKKBEpujL7akSqH-c">
    <mxGraphModel dx="656" dy="416" grid="1" gridSize="10" guides="1" tooltips="1" connect="1" arrows="1" fold="1" page="1" pageScale="1" pageWidth="850" pageHeight="1100" math="1" shadow="0">
      <root>
        <mxCell id="0" />
        <mxCell id="1" parent="0" />
        <mxCell id="ILipK6pUstItX-LzdFIn-20" style="edgeStyle=orthogonalEdgeStyle;rounded=0;orthogonalLoop=1;jettySize=auto;html=1;exitX=0;exitY=0.5;exitDx=0;exitDy=0;exitPerimeter=0;endArrow=none;startFill=0;" parent="1" source="ILipK6pUstItX-LzdFIn-1" edge="1">
          <mxGeometry relative="1" as="geometry">
            <mxPoint x="510" y="110.14035087719299" as="targetPoint" />
          </mxGeometry>
        </mxCell>
        <mxCell id="MSCoQmtM2xvOpEuUudS3-13" style="edgeStyle=orthogonalEdgeStyle;rounded=0;orthogonalLoop=1;jettySize=auto;html=1;exitX=1;exitY=0.5;exitDx=0;exitDy=0;exitPerimeter=0;" parent="1" source="ILipK6pUstItX-LzdFIn-1" edge="1">
          <mxGeometry relative="1" as="geometry">
            <mxPoint x="660.0000000000005" y="109.77777777777783" as="targetPoint" />
          </mxGeometry>
        </mxCell>
        <mxCell id="ILipK6pUstItX-LzdFIn-1" value="" style="pointerEvents=1;verticalLabelPosition=bottom;shadow=0;dashed=0;align=center;html=1;verticalAlign=top;shape=mxgraph.electrical.resistors.resistor_2;" parent="1" vertex="1">
          <mxGeometry x="530" y="100" width="100" height="20" as="geometry" />
        </mxCell>
        <mxCell id="ILipK6pUstItX-LzdFIn-12" style="edgeStyle=orthogonalEdgeStyle;rounded=0;orthogonalLoop=1;jettySize=auto;html=1;endArrow=none;startFill=0;" parent="1" edge="1">
          <mxGeometry relative="1" as="geometry">
            <mxPoint x="270" y="159.9999999999999" as="targetPoint" />
            <mxPoint x="270" y="60" as="sourcePoint" />
            <Array as="points">
              <mxPoint x="290" y="60" />
              <mxPoint x="290" y="160" />
            </Array>
          </mxGeometry>
        </mxCell>
        <mxCell id="ILipK6pUstItX-LzdFIn-2" value="" style="pointerEvents=1;verticalLabelPosition=bottom;shadow=0;dashed=0;align=center;html=1;verticalAlign=top;shape=mxgraph.electrical.resistors.resistor_2;fontStyle=2;direction=west;" parent="1" vertex="1">
          <mxGeometry x="179.98" y="50" width="100" height="20" as="geometry" />
        </mxCell>
        <mxCell id="ILipK6pUstItX-LzdFIn-3" value="" style="pointerEvents=1;verticalLabelPosition=bottom;shadow=0;dashed=0;align=center;html=1;verticalAlign=top;shape=mxgraph.electrical.capacitors.capacitor_1;" parent="1" vertex="1">
          <mxGeometry x="179.98" y="130" width="100" height="60" as="geometry" />
        </mxCell>
        <mxCell id="ILipK6pUstItX-LzdFIn-7" style="edgeStyle=orthogonalEdgeStyle;rounded=0;orthogonalLoop=1;jettySize=auto;html=1;exitX=0;exitY=0.5;exitDx=0;exitDy=0;exitPerimeter=0;entryX=1;entryY=0.5;entryDx=0;entryDy=0;entryPerimeter=0;endArrow=none;startFill=0;" parent="1" source="ILipK6pUstItX-LzdFIn-3" target="ILipK6pUstItX-LzdFIn-2" edge="1">
          <mxGeometry relative="1" as="geometry">
            <Array as="points">
              <mxPoint x="170" y="160" />
              <mxPoint x="170" y="60" />
            </Array>
          </mxGeometry>
        </mxCell>
        <mxCell id="ILipK6pUstItX-LzdFIn-11" value="" style="endArrow=none;dashed=1;html=1;dashPattern=1 3;strokeWidth=2;rounded=0;" parent="1" edge="1">
          <mxGeometry width="50" height="50" relative="1" as="geometry">
            <mxPoint x="330" y="110" as="sourcePoint" />
            <mxPoint x="360" y="110" as="targetPoint" />
          </mxGeometry>
        </mxCell>
        <mxCell id="ILipK6pUstItX-LzdFIn-13" value="" style="endArrow=none;html=1;rounded=0;" parent="1" edge="1">
          <mxGeometry width="50" height="50" relative="1" as="geometry">
            <mxPoint x="290" y="109.65" as="sourcePoint" />
            <mxPoint x="310" y="109.65" as="targetPoint" />
          </mxGeometry>
        </mxCell>
        <mxCell id="ILipK6pUstItX-LzdFIn-14" style="edgeStyle=orthogonalEdgeStyle;rounded=0;orthogonalLoop=1;jettySize=auto;html=1;endArrow=none;startFill=0;" parent="1" edge="1">
          <mxGeometry relative="1" as="geometry">
            <mxPoint x="490" y="159.9999999999999" as="targetPoint" />
            <mxPoint x="490" y="60" as="sourcePoint" />
            <Array as="points">
              <mxPoint x="510" y="60" />
              <mxPoint x="510" y="160" />
            </Array>
          </mxGeometry>
        </mxCell>
        <mxCell id="ILipK6pUstItX-LzdFIn-15" value="" style="pointerEvents=1;verticalLabelPosition=bottom;shadow=0;dashed=0;align=center;html=1;verticalAlign=top;shape=mxgraph.electrical.resistors.resistor_2;fontStyle=2;direction=west;" parent="1" vertex="1">
          <mxGeometry x="399.97999999999996" y="50" width="100" height="20" as="geometry" />
        </mxCell>
        <mxCell id="ILipK6pUstItX-LzdFIn-16" value="" style="pointerEvents=1;verticalLabelPosition=bottom;shadow=0;dashed=0;align=center;html=1;verticalAlign=top;shape=mxgraph.electrical.capacitors.capacitor_1;" parent="1" vertex="1">
          <mxGeometry x="399.97999999999996" y="130" width="100" height="60" as="geometry" />
        </mxCell>
        <mxCell id="ILipK6pUstItX-LzdFIn-17" style="edgeStyle=orthogonalEdgeStyle;rounded=0;orthogonalLoop=1;jettySize=auto;html=1;exitX=0;exitY=0.5;exitDx=0;exitDy=0;exitPerimeter=0;entryX=1;entryY=0.5;entryDx=0;entryDy=0;entryPerimeter=0;endArrow=none;startFill=0;" parent="1" source="ILipK6pUstItX-LzdFIn-16" target="ILipK6pUstItX-LzdFIn-15" edge="1">
          <mxGeometry relative="1" as="geometry">
            <Array as="points">
              <mxPoint x="390" y="160" />
              <mxPoint x="390" y="60" />
            </Array>
          </mxGeometry>
        </mxCell>
        <mxCell id="ILipK6pUstItX-LzdFIn-19" value="" style="endArrow=none;html=1;rounded=0;" parent="1" edge="1">
          <mxGeometry width="50" height="50" relative="1" as="geometry">
            <mxPoint x="370" y="110" as="sourcePoint" />
            <mxPoint x="390" y="110" as="targetPoint" />
          </mxGeometry>
        </mxCell>
        <mxCell id="MSCoQmtM2xvOpEuUudS3-4" value="$$r_n$$" style="text;html=1;align=center;verticalAlign=middle;whiteSpace=wrap;rounded=0;" parent="1" vertex="1">
          <mxGeometry x="199.98000000000002" y="20" width="60" height="30" as="geometry" />
        </mxCell>
        <mxCell id="MSCoQmtM2xvOpEuUudS3-5" value="$$c_n$$" style="text;html=1;align=center;verticalAlign=middle;whiteSpace=wrap;rounded=0;" parent="1" vertex="1">
          <mxGeometry x="199.98000000000002" y="100" width="60" height="30" as="geometry" />
        </mxCell>
        <mxCell id="MSCoQmtM2xvOpEuUudS3-6" value="$$r_1$$" style="text;html=1;align=center;verticalAlign=middle;whiteSpace=wrap;rounded=0;" parent="1" vertex="1">
          <mxGeometry x="419.98" y="20" width="60" height="30" as="geometry" />
        </mxCell>
        <mxCell id="MSCoQmtM2xvOpEuUudS3-7" value="$$c_1$$" style="text;html=1;align=center;verticalAlign=middle;whiteSpace=wrap;rounded=0;" parent="1" vertex="1">
          <mxGeometry x="419.98" y="100" width="60" height="30" as="geometry" />
        </mxCell>
        <mxCell id="MSCoQmtM2xvOpEuUudS3-8" value="$$r_0$$" style="text;html=1;align=center;verticalAlign=middle;whiteSpace=wrap;rounded=0;" parent="1" vertex="1">
          <mxGeometry x="550" y="70" width="60" height="30" as="geometry" />
        </mxCell>
        <mxCell id="MSCoQmtM2xvOpEuUudS3-9" style="rounded=0;orthogonalLoop=1;jettySize=auto;html=1;endArrow=none;startFill=1;entryX=1;entryY=0.5;entryDx=0;entryDy=0;entryPerimeter=0;startArrow=oval;" parent="1" target="ILipK6pUstItX-LzdFIn-1" edge="1">
          <mxGeometry relative="1" as="geometry">
            <mxPoint x="520" y="120.14035087719299" as="targetPoint" />
            <mxPoint x="680" y="110" as="sourcePoint" />
          </mxGeometry>
        </mxCell>
        <mxCell id="MSCoQmtM2xvOpEuUudS3-10" value="" style="endArrow=oval;html=1;rounded=0;endFill=1;exitX=0.5;exitY=1;exitDx=0;exitDy=0;" parent="1" source="MSCoQmtM2xvOpEuUudS3-16" edge="1">
          <mxGeometry width="50" height="50" relative="1" as="geometry">
            <mxPoint x="120" y="200" as="sourcePoint" />
            <mxPoint x="680" y="240" as="targetPoint" />
            <Array as="points">
              <mxPoint x="120" y="210" />
              <mxPoint x="120" y="240" />
              <mxPoint x="150" y="240" />
            </Array>
          </mxGeometry>
        </mxCell>
        <mxCell id="MSCoQmtM2xvOpEuUudS3-11" value="" style="endArrow=classic;startArrow=classic;html=1;rounded=0;dashed=1;strokeColor=#9C9C9C;" parent="1" edge="1">
          <mxGeometry width="50" height="50" relative="1" as="geometry">
            <mxPoint x="680" y="230" as="sourcePoint" />
            <mxPoint x="680" y="120" as="targetPoint" />
          </mxGeometry>
        </mxCell>
        <mxCell id="MSCoQmtM2xvOpEuUudS3-12" value="$$V_t$$" style="text;html=1;align=center;verticalAlign=middle;whiteSpace=wrap;rounded=0;" parent="1" vertex="1">
          <mxGeometry x="670" y="160" width="60" height="30" as="geometry" />
        </mxCell>
        <mxCell id="MSCoQmtM2xvOpEuUudS3-14" value="$$i$$" style="text;html=1;align=center;verticalAlign=middle;whiteSpace=wrap;rounded=0;" parent="1" vertex="1">
          <mxGeometry x="620" y="70" width="60" height="30" as="geometry" />
        </mxCell>
        <mxCell id="MSCoQmtM2xvOpEuUudS3-17" style="edgeStyle=orthogonalEdgeStyle;rounded=0;orthogonalLoop=1;jettySize=auto;html=1;exitX=0.5;exitY=0;exitDx=0;exitDy=0;endArrow=none;startFill=0;" parent="1" source="MSCoQmtM2xvOpEuUudS3-16" edge="1">
          <mxGeometry relative="1" as="geometry">
            <mxPoint x="170" y="110" as="targetPoint" />
            <Array as="points">
              <mxPoint x="120" y="110" />
              <mxPoint x="170" y="110" />
            </Array>
          </mxGeometry>
        </mxCell>
        <mxCell id="MSCoQmtM2xvOpEuUudS3-16" value="+&lt;div&gt;-&lt;/div&gt;" style="ellipse;whiteSpace=wrap;html=1;aspect=fixed;fillColor=none;" parent="1" vertex="1">
          <mxGeometry x="100" y="155" width="40" height="40" as="geometry" />
        </mxCell>
        <mxCell id="MSCoQmtM2xvOpEuUudS3-18" value="$$E_0$$" style="text;html=1;align=center;verticalAlign=middle;whiteSpace=wrap;rounded=0;" parent="1" vertex="1">
          <mxGeometry x="50.00000000000003" y="160" width="60" height="30" as="geometry" />
        </mxCell>
        <mxCell id="MSCoQmtM2xvOpEuUudS3-19" value="" style="endArrow=classic;startArrow=classic;html=1;rounded=0;strokeColor=#999999;dashed=1;" parent="1" edge="1">
          <mxGeometry width="50" height="50" relative="1" as="geometry">
            <mxPoint x="170" y="200" as="sourcePoint" />
            <mxPoint x="290" y="200" as="targetPoint" />
          </mxGeometry>
        </mxCell>
        <mxCell id="MSCoQmtM2xvOpEuUudS3-20" value="$$V_{C_n}$$" style="text;html=1;align=center;verticalAlign=middle;whiteSpace=wrap;rounded=0;" parent="1" vertex="1">
          <mxGeometry x="199.98000000000002" y="200" width="60" height="30" as="geometry" />
        </mxCell>
        <mxCell id="lmwsKECggC40sytSbWI2-1" style="edgeStyle=orthogonalEdgeStyle;rounded=0;orthogonalLoop=1;jettySize=auto;html=1;exitX=0;exitY=0.5;exitDx=0;exitDy=0;exitPerimeter=0;endArrow=none;startFill=0;" edge="1" parent="1" source="lmwsKECggC40sytSbWI2-3">
          <mxGeometry relative="1" as="geometry">
            <mxPoint x="510" y="390.140350877193" as="targetPoint" />
          </mxGeometry>
        </mxCell>
        <mxCell id="lmwsKECggC40sytSbWI2-2" style="edgeStyle=orthogonalEdgeStyle;rounded=0;orthogonalLoop=1;jettySize=auto;html=1;exitX=1;exitY=0.5;exitDx=0;exitDy=0;exitPerimeter=0;" edge="1" parent="1" source="lmwsKECggC40sytSbWI2-3">
          <mxGeometry relative="1" as="geometry">
            <mxPoint x="660.0000000000005" y="389.7777777777778" as="targetPoint" />
          </mxGeometry>
        </mxCell>
        <mxCell id="lmwsKECggC40sytSbWI2-3" value="" style="pointerEvents=1;verticalLabelPosition=bottom;shadow=0;dashed=0;align=center;html=1;verticalAlign=top;shape=mxgraph.electrical.resistors.resistor_2;" vertex="1" parent="1">
          <mxGeometry x="530" y="380" width="100" height="20" as="geometry" />
        </mxCell>
        <mxCell id="lmwsKECggC40sytSbWI2-4" style="edgeStyle=orthogonalEdgeStyle;rounded=0;orthogonalLoop=1;jettySize=auto;html=1;endArrow=none;startFill=0;exitX=0;exitY=0.5;exitDx=0;exitDy=0;exitPerimeter=0;" edge="1" parent="1" source="lmwsKECggC40sytSbWI2-5">
          <mxGeometry relative="1" as="geometry">
            <mxPoint x="270" y="439.9999999999999" as="targetPoint" />
            <mxPoint x="270" y="340" as="sourcePoint" />
            <Array as="points">
              <mxPoint x="290" y="360" />
              <mxPoint x="290" y="440" />
            </Array>
          </mxGeometry>
        </mxCell>
        <mxCell id="lmwsKECggC40sytSbWI2-5" value="" style="pointerEvents=1;verticalLabelPosition=bottom;shadow=0;dashed=0;align=center;html=1;verticalAlign=top;shape=mxgraph.electrical.resistors.resistor_2;fontStyle=2;direction=west;" vertex="1" parent="1">
          <mxGeometry x="179.98" y="350" width="100" height="20" as="geometry" />
        </mxCell>
        <mxCell id="lmwsKECggC40sytSbWI2-6" value="" style="pointerEvents=1;verticalLabelPosition=bottom;shadow=0;dashed=0;align=center;html=1;verticalAlign=top;shape=mxgraph.electrical.capacitors.capacitor_1;" vertex="1" parent="1">
          <mxGeometry x="179.98" y="410" width="100" height="60" as="geometry" />
        </mxCell>
        <mxCell id="lmwsKECggC40sytSbWI2-7" style="edgeStyle=orthogonalEdgeStyle;rounded=0;orthogonalLoop=1;jettySize=auto;html=1;exitX=0;exitY=0.5;exitDx=0;exitDy=0;exitPerimeter=0;entryX=1;entryY=0.5;entryDx=0;entryDy=0;entryPerimeter=0;endArrow=none;startFill=0;" edge="1" parent="1" source="lmwsKECggC40sytSbWI2-6" target="lmwsKECggC40sytSbWI2-5">
          <mxGeometry relative="1" as="geometry">
            <Array as="points">
              <mxPoint x="170" y="440" />
              <mxPoint x="170" y="360" />
            </Array>
          </mxGeometry>
        </mxCell>
        <mxCell id="lmwsKECggC40sytSbWI2-9" value="" style="endArrow=none;html=1;rounded=0;" edge="1" parent="1">
          <mxGeometry width="50" height="50" relative="1" as="geometry">
            <mxPoint x="290" y="389.65" as="sourcePoint" />
            <mxPoint x="390" y="390" as="targetPoint" />
          </mxGeometry>
        </mxCell>
        <mxCell id="lmwsKECggC40sytSbWI2-10" style="edgeStyle=orthogonalEdgeStyle;rounded=0;orthogonalLoop=1;jettySize=auto;html=1;endArrow=none;startFill=0;" edge="1" parent="1">
          <mxGeometry relative="1" as="geometry">
            <mxPoint x="490" y="439.9999999999999" as="targetPoint" />
            <mxPoint x="500" y="360" as="sourcePoint" />
            <Array as="points">
              <mxPoint x="510" y="360" />
              <mxPoint x="510" y="440" />
            </Array>
          </mxGeometry>
        </mxCell>
        <mxCell id="lmwsKECggC40sytSbWI2-11" value="" style="pointerEvents=1;verticalLabelPosition=bottom;shadow=0;dashed=0;align=center;html=1;verticalAlign=top;shape=mxgraph.electrical.resistors.resistor_2;fontStyle=2;direction=west;" vertex="1" parent="1">
          <mxGeometry x="399.97999999999996" y="350" width="100" height="20" as="geometry" />
        </mxCell>
        <mxCell id="lmwsKECggC40sytSbWI2-12" value="" style="pointerEvents=1;verticalLabelPosition=bottom;shadow=0;dashed=0;align=center;html=1;verticalAlign=top;shape=mxgraph.electrical.capacitors.capacitor_1;" vertex="1" parent="1">
          <mxGeometry x="399.97999999999996" y="410" width="100" height="60" as="geometry" />
        </mxCell>
        <mxCell id="lmwsKECggC40sytSbWI2-13" style="edgeStyle=orthogonalEdgeStyle;rounded=0;orthogonalLoop=1;jettySize=auto;html=1;exitX=0;exitY=0.5;exitDx=0;exitDy=0;exitPerimeter=0;entryX=1;entryY=0.5;entryDx=0;entryDy=0;entryPerimeter=0;endArrow=none;startFill=0;" edge="1" parent="1" source="lmwsKECggC40sytSbWI2-12" target="lmwsKECggC40sytSbWI2-11">
          <mxGeometry relative="1" as="geometry">
            <Array as="points">
              <mxPoint x="390" y="440" />
              <mxPoint x="390" y="360" />
            </Array>
          </mxGeometry>
        </mxCell>
        <mxCell id="lmwsKECggC40sytSbWI2-15" value="$$r_{a_2}$$" style="text;html=1;align=center;verticalAlign=middle;whiteSpace=wrap;rounded=0;" vertex="1" parent="1">
          <mxGeometry x="199.98000000000002" y="320" width="60" height="30" as="geometry" />
        </mxCell>
        <mxCell id="lmwsKECggC40sytSbWI2-16" value="$$c_{a_2}$$" style="text;html=1;align=center;verticalAlign=middle;whiteSpace=wrap;rounded=0;" vertex="1" parent="1">
          <mxGeometry x="199.98000000000002" y="380" width="60" height="30" as="geometry" />
        </mxCell>
        <mxCell id="lmwsKECggC40sytSbWI2-17" value="$$r_{a_1}$$" style="text;html=1;align=center;verticalAlign=middle;whiteSpace=wrap;rounded=0;" vertex="1" parent="1">
          <mxGeometry x="419.98" y="310" width="60" height="30" as="geometry" />
        </mxCell>
        <mxCell id="lmwsKECggC40sytSbWI2-18" value="$$c_{a_1}$$" style="text;html=1;align=center;verticalAlign=middle;whiteSpace=wrap;rounded=0;" vertex="1" parent="1">
          <mxGeometry x="419.98" y="380" width="60" height="30" as="geometry" />
        </mxCell>
        <mxCell id="lmwsKECggC40sytSbWI2-19" value="$$r_{a_0}$$" style="text;html=1;align=center;verticalAlign=middle;whiteSpace=wrap;rounded=0;" vertex="1" parent="1">
          <mxGeometry x="550" y="350" width="60" height="30" as="geometry" />
        </mxCell>
        <mxCell id="lmwsKECggC40sytSbWI2-20" style="rounded=0;orthogonalLoop=1;jettySize=auto;html=1;endArrow=none;startFill=1;entryX=1;entryY=0.5;entryDx=0;entryDy=0;entryPerimeter=0;startArrow=oval;" edge="1" parent="1">
          <mxGeometry relative="1" as="geometry">
            <mxPoint x="730" y="338.82" as="targetPoint" />
            <mxPoint x="780" y="338.82" as="sourcePoint" />
          </mxGeometry>
        </mxCell>
        <mxCell id="lmwsKECggC40sytSbWI2-22" value="" style="endArrow=classic;startArrow=classic;html=1;rounded=0;dashed=1;strokeColor=#9C9C9C;" edge="1" parent="1">
          <mxGeometry width="50" height="50" relative="1" as="geometry">
            <mxPoint x="770" y="510" as="sourcePoint" />
            <mxPoint x="770" y="400" as="targetPoint" />
          </mxGeometry>
        </mxCell>
        <mxCell id="lmwsKECggC40sytSbWI2-23" value="$$V_t$$" style="text;html=1;align=center;verticalAlign=middle;whiteSpace=wrap;rounded=0;" vertex="1" parent="1">
          <mxGeometry x="760" y="440" width="60" height="30" as="geometry" />
        </mxCell>
        <mxCell id="lmwsKECggC40sytSbWI2-24" value="$$i_a$$" style="text;html=1;align=center;verticalAlign=middle;whiteSpace=wrap;rounded=0;" vertex="1" parent="1">
          <mxGeometry x="608" y="360" width="60" height="30" as="geometry" />
        </mxCell>
        <mxCell id="lmwsKECggC40sytSbWI2-30" style="edgeStyle=orthogonalEdgeStyle;rounded=0;orthogonalLoop=1;jettySize=auto;html=1;exitX=0;exitY=0.5;exitDx=0;exitDy=0;endArrow=none;startFill=0;" edge="1" parent="1" source="lmwsKECggC40sytSbWI2-26">
          <mxGeometry relative="1" as="geometry">
            <mxPoint x="170" y="390" as="targetPoint" />
          </mxGeometry>
        </mxCell>
        <mxCell id="lmwsKECggC40sytSbWI2-68" style="edgeStyle=orthogonalEdgeStyle;rounded=0;orthogonalLoop=1;jettySize=auto;html=1;exitX=1;exitY=0.5;exitDx=0;exitDy=0;entryX=1;entryY=0.5;entryDx=0;entryDy=0;endArrow=none;startFill=0;" edge="1" parent="1" source="lmwsKECggC40sytSbWI2-26" target="lmwsKECggC40sytSbWI2-31">
          <mxGeometry relative="1" as="geometry" />
        </mxCell>
        <mxCell id="lmwsKECggC40sytSbWI2-26" value="+&lt;div&gt;-&lt;/div&gt;" style="ellipse;whiteSpace=wrap;html=1;aspect=fixed;fillColor=none;rotation=90;direction=south;" vertex="1" parent="1">
          <mxGeometry x="100" y="370" width="40" height="40" as="geometry" />
        </mxCell>
        <mxCell id="lmwsKECggC40sytSbWI2-27" value="$$E_{a_0}$$" style="text;html=1;align=center;verticalAlign=middle;whiteSpace=wrap;rounded=0;" vertex="1" parent="1">
          <mxGeometry x="90.00000000000003" y="330" width="60" height="30" as="geometry" />
        </mxCell>
        <mxCell id="lmwsKECggC40sytSbWI2-28" value="" style="endArrow=classic;startArrow=classic;html=1;rounded=0;strokeColor=#999999;dashed=1;" edge="1" parent="1">
          <mxGeometry width="50" height="50" relative="1" as="geometry">
            <mxPoint x="170" y="480" as="sourcePoint" />
            <mxPoint x="290" y="480" as="targetPoint" />
          </mxGeometry>
        </mxCell>
        <mxCell id="lmwsKECggC40sytSbWI2-29" value="$$V_{C_{a_2}}$$" style="text;html=1;align=center;verticalAlign=middle;whiteSpace=wrap;rounded=0;" vertex="1" parent="1">
          <mxGeometry x="199.98000000000002" y="480" width="60" height="30" as="geometry" />
        </mxCell>
        <mxCell id="lmwsKECggC40sytSbWI2-67" style="edgeStyle=orthogonalEdgeStyle;rounded=0;orthogonalLoop=1;jettySize=auto;html=1;exitX=0;exitY=0.5;exitDx=0;exitDy=0;endArrow=none;startFill=0;" edge="1" parent="1" source="lmwsKECggC40sytSbWI2-31">
          <mxGeometry relative="1" as="geometry">
            <mxPoint x="170" y="580.1176470588236" as="targetPoint" />
          </mxGeometry>
        </mxCell>
        <mxCell id="lmwsKECggC40sytSbWI2-31" value="+&lt;div&gt;-&lt;/div&gt;" style="ellipse;whiteSpace=wrap;html=1;aspect=fixed;fillColor=none;rotation=90;direction=south;" vertex="1" parent="1">
          <mxGeometry x="100" y="560" width="40" height="40" as="geometry" />
        </mxCell>
        <mxCell id="lmwsKECggC40sytSbWI2-49" style="edgeStyle=orthogonalEdgeStyle;rounded=0;orthogonalLoop=1;jettySize=auto;html=1;exitX=0;exitY=0.5;exitDx=0;exitDy=0;exitPerimeter=0;endArrow=none;startFill=0;" edge="1" parent="1" source="lmwsKECggC40sytSbWI2-51">
          <mxGeometry relative="1" as="geometry">
            <mxPoint x="510" y="580" as="targetPoint" />
          </mxGeometry>
        </mxCell>
        <mxCell id="lmwsKECggC40sytSbWI2-74" style="edgeStyle=orthogonalEdgeStyle;rounded=0;orthogonalLoop=1;jettySize=auto;html=1;exitX=1;exitY=0.5;exitDx=0;exitDy=0;exitPerimeter=0;" edge="1" parent="1" source="lmwsKECggC40sytSbWI2-51">
          <mxGeometry relative="1" as="geometry">
            <mxPoint x="660" y="580" as="targetPoint" />
          </mxGeometry>
        </mxCell>
        <mxCell id="lmwsKECggC40sytSbWI2-51" value="" style="pointerEvents=1;verticalLabelPosition=bottom;shadow=0;dashed=0;align=center;html=1;verticalAlign=top;shape=mxgraph.electrical.resistors.resistor_2;" vertex="1" parent="1">
          <mxGeometry x="528" y="570" width="100" height="20" as="geometry" />
        </mxCell>
        <mxCell id="lmwsKECggC40sytSbWI2-52" style="edgeStyle=orthogonalEdgeStyle;rounded=0;orthogonalLoop=1;jettySize=auto;html=1;endArrow=none;startFill=0;exitX=0;exitY=0.5;exitDx=0;exitDy=0;exitPerimeter=0;" edge="1" parent="1" source="lmwsKECggC40sytSbWI2-53">
          <mxGeometry relative="1" as="geometry">
            <mxPoint x="268" y="628.8199999999999" as="targetPoint" />
            <mxPoint x="268" y="528.82" as="sourcePoint" />
            <Array as="points">
              <mxPoint x="288" y="549" />
              <mxPoint x="288" y="629" />
            </Array>
          </mxGeometry>
        </mxCell>
        <mxCell id="lmwsKECggC40sytSbWI2-53" value="" style="pointerEvents=1;verticalLabelPosition=bottom;shadow=0;dashed=0;align=center;html=1;verticalAlign=top;shape=mxgraph.electrical.resistors.resistor_2;fontStyle=2;direction=west;" vertex="1" parent="1">
          <mxGeometry x="177.98" y="539.82" width="100" height="20" as="geometry" />
        </mxCell>
        <mxCell id="lmwsKECggC40sytSbWI2-54" value="" style="pointerEvents=1;verticalLabelPosition=bottom;shadow=0;dashed=0;align=center;html=1;verticalAlign=top;shape=mxgraph.electrical.capacitors.capacitor_1;" vertex="1" parent="1">
          <mxGeometry x="177.98" y="598.82" width="100" height="60" as="geometry" />
        </mxCell>
        <mxCell id="lmwsKECggC40sytSbWI2-55" style="edgeStyle=orthogonalEdgeStyle;rounded=0;orthogonalLoop=1;jettySize=auto;html=1;exitX=0;exitY=0.5;exitDx=0;exitDy=0;exitPerimeter=0;entryX=1;entryY=0.5;entryDx=0;entryDy=0;entryPerimeter=0;endArrow=none;startFill=0;" edge="1" parent="1" source="lmwsKECggC40sytSbWI2-54" target="lmwsKECggC40sytSbWI2-53">
          <mxGeometry relative="1" as="geometry">
            <Array as="points">
              <mxPoint x="170" y="629" />
              <mxPoint x="170" y="550" />
            </Array>
          </mxGeometry>
        </mxCell>
        <mxCell id="lmwsKECggC40sytSbWI2-56" value="" style="endArrow=none;html=1;rounded=0;" edge="1" parent="1">
          <mxGeometry width="50" height="50" relative="1" as="geometry">
            <mxPoint x="288" y="578.47" as="sourcePoint" />
            <mxPoint x="388" y="578.82" as="targetPoint" />
          </mxGeometry>
        </mxCell>
        <mxCell id="lmwsKECggC40sytSbWI2-58" value="" style="pointerEvents=1;verticalLabelPosition=bottom;shadow=0;dashed=0;align=center;html=1;verticalAlign=top;shape=mxgraph.electrical.resistors.resistor_2;fontStyle=2;direction=west;" vertex="1" parent="1">
          <mxGeometry x="399.97999999999996" y="538.82" width="100" height="20" as="geometry" />
        </mxCell>
        <mxCell id="lmwsKECggC40sytSbWI2-59" value="" style="pointerEvents=1;verticalLabelPosition=bottom;shadow=0;dashed=0;align=center;html=1;verticalAlign=top;shape=mxgraph.electrical.capacitors.capacitor_1;" vertex="1" parent="1">
          <mxGeometry x="397.98" y="600" width="102.02" height="60" as="geometry" />
        </mxCell>
        <mxCell id="lmwsKECggC40sytSbWI2-60" style="edgeStyle=orthogonalEdgeStyle;rounded=0;orthogonalLoop=1;jettySize=auto;html=1;exitX=0;exitY=0.5;exitDx=0;exitDy=0;exitPerimeter=0;entryX=1;entryY=0.5;entryDx=0;entryDy=0;entryPerimeter=0;endArrow=none;startFill=0;" edge="1" parent="1" source="lmwsKECggC40sytSbWI2-59" target="lmwsKECggC40sytSbWI2-58">
          <mxGeometry relative="1" as="geometry">
            <Array as="points">
              <mxPoint x="388" y="630" />
              <mxPoint x="388" y="549" />
            </Array>
          </mxGeometry>
        </mxCell>
        <mxCell id="lmwsKECggC40sytSbWI2-61" value="$$c_{b_2}$$" style="text;html=1;align=center;verticalAlign=middle;whiteSpace=wrap;rounded=0;" vertex="1" parent="1">
          <mxGeometry x="197.98000000000002" y="568.82" width="60" height="30" as="geometry" />
        </mxCell>
        <mxCell id="lmwsKECggC40sytSbWI2-62" value="$$c_{b_1}$$" style="text;html=1;align=center;verticalAlign=middle;whiteSpace=wrap;rounded=0;" vertex="1" parent="1">
          <mxGeometry x="417.98" y="568.82" width="60" height="30" as="geometry" />
        </mxCell>
        <mxCell id="lmwsKECggC40sytSbWI2-63" value="$$r_{b_0}$$" style="text;html=1;align=center;verticalAlign=middle;whiteSpace=wrap;rounded=0;" vertex="1" parent="1">
          <mxGeometry x="548" y="538.82" width="60" height="30" as="geometry" />
        </mxCell>
        <mxCell id="lmwsKECggC40sytSbWI2-64" value="" style="endArrow=classic;startArrow=classic;html=1;rounded=0;strokeColor=#999999;dashed=1;" edge="1" parent="1">
          <mxGeometry width="50" height="50" relative="1" as="geometry">
            <mxPoint x="168" y="668.82" as="sourcePoint" />
            <mxPoint x="288" y="668.82" as="targetPoint" />
          </mxGeometry>
        </mxCell>
        <mxCell id="lmwsKECggC40sytSbWI2-65" value="$$V_{C_{b_2}}$$" style="text;html=1;align=center;verticalAlign=middle;whiteSpace=wrap;rounded=0;" vertex="1" parent="1">
          <mxGeometry x="189.98000000000002" y="670" width="60" height="30" as="geometry" />
        </mxCell>
        <mxCell id="lmwsKECggC40sytSbWI2-66" style="rounded=0;orthogonalLoop=1;jettySize=auto;html=1;endArrow=none;startFill=1;entryX=1;entryY=0.5;entryDx=0;entryDy=0;entryPerimeter=0;startArrow=oval;" edge="1" parent="1">
          <mxGeometry relative="1" as="geometry">
            <mxPoint x="730" y="364.40999999999997" as="targetPoint" />
            <mxPoint x="780" y="364.40999999999997" as="sourcePoint" />
          </mxGeometry>
        </mxCell>
        <mxCell id="lmwsKECggC40sytSbWI2-69" value="$$E_{b_0}$$" style="text;html=1;align=center;verticalAlign=middle;whiteSpace=wrap;rounded=0;" vertex="1" parent="1">
          <mxGeometry x="80.00000000000003" y="520" width="60" height="30" as="geometry" />
        </mxCell>
        <mxCell id="lmwsKECggC40sytSbWI2-71" style="edgeStyle=orthogonalEdgeStyle;rounded=0;orthogonalLoop=1;jettySize=auto;html=1;exitX=0;exitY=0.5;exitDx=0;exitDy=0;exitPerimeter=0;endArrow=none;startFill=0;" edge="1" parent="1" source="lmwsKECggC40sytSbWI2-58">
          <mxGeometry relative="1" as="geometry">
            <mxPoint x="500" y="630" as="targetPoint" />
            <Array as="points">
              <mxPoint x="510" y="549" />
              <mxPoint x="510" y="630" />
            </Array>
          </mxGeometry>
        </mxCell>
        <mxCell id="lmwsKECggC40sytSbWI2-72" value="$$r_{b_2}$$" style="text;html=1;align=center;verticalAlign=middle;whiteSpace=wrap;rounded=0;" vertex="1" parent="1">
          <mxGeometry x="197.98000000000002" y="510" width="60" height="30" as="geometry" />
        </mxCell>
        <mxCell id="lmwsKECggC40sytSbWI2-73" value="$$r_{b_1}$$" style="text;html=1;align=center;verticalAlign=middle;whiteSpace=wrap;rounded=0;" vertex="1" parent="1">
          <mxGeometry x="419.98" y="508.82" width="60" height="30" as="geometry" />
        </mxCell>
        <mxCell id="lmwsKECggC40sytSbWI2-75" value="$$i_b$$" style="text;html=1;align=center;verticalAlign=middle;whiteSpace=wrap;rounded=0;" vertex="1" parent="1">
          <mxGeometry x="608" y="550" width="60" height="30" as="geometry" />
        </mxCell>
      </root>
    </mxGraphModel>
  </diagram>
</mxfile>
